grf
version=1
nRows=15
nColumns=37
inDegrees=no
endheader
time	ground_force_1_vx	ground_force_1_vy	ground_force_1_vz	ground_force_1_px	ground_force_1_py	ground_force_1_pz	ground_moment_1_mx	ground_moment_1_my	ground_moment_1_mz	ground_force_2_vx	ground_force_2_vy	ground_force_2_vz	ground_force_2_px	ground_force_2_py	ground_force_2_pz	ground_moment_2_mx	ground_moment_2_my	ground_moment_2_mz	ground_force_3_vx	ground_force_3_vy	ground_force_3_vz	ground_force_3_px	ground_force_3_py	ground_force_3_pz	ground_moment_3_mx	ground_moment_3_my	ground_moment_3_mz	ground_force_4_vx	ground_force_4_vy	ground_force_4_vz	ground_force_4_px	ground_force_4_py	ground_force_4_pz	ground_moment_4_mx	ground_moment_4_my	ground_moment_4_mz
      0.00000000	      0.00000000	     -0.00000000	      0.00000000	      0.00000000	      0.00000000	      0.00000000	      0.00000000	      0.00000000	      0.00000000	     -1.08168721	     77.27597809	   -506.10687256	   -318.64929261	  -1123.29716687	      0.00000000	      0.00000000	      0.00000000	   6199.74777546	    -26.18076592	    -52.47404633	   -386.51086426	   -254.10663827	   -632.20231289	      0.00000000	      0.00000000	     -0.00000000	 -13232.73803702	      0.00000000	     -0.00000000	      0.00000000	      0.00000000	      0.00000000	      0.00000000	      0.00000000	      0.00000000	      0.00000000
      0.01000000	      0.00000000	     -0.00000000	      0.00000000	      0.00000000	      0.00000000	      0.00000000	      0.00000000	      0.00000000	      0.00000000	     -2.17484903	     80.64050293	   -505.40051270	   -317.33335040	  -1124.27345727	      0.00000000	      0.00000000	      0.00000000	   6365.68922827	    -27.48916314	    -51.61326740	   -383.76165771	   -252.98350350	   -632.64797754	      0.00000000	      0.00000000	     -0.00000000	 -12860.64314447	      0.00000000	     -0.00000000	      0.00000000	      0.00000000	      0.00000000	      0.00000000	      0.00000000	      0.00000000	      0.00000000
      0.02000000	      0.00000000	     -0.00000000	      0.00000000	      0.00000000	      0.00000000	      0.00000000	      0.00000000	      0.00000000	      0.00000000	     -2.87749290	     82.05680847	   -504.21301270	   -317.10816647	  -1124.99781577	      0.00000000	      0.00000000	      0.00000000	   6614.50769740	    -28.04390961	    -49.77009719	   -378.39141846	   -250.84455171	   -633.04225581	      0.00000000	      0.00000000	     -0.00000000	 -12806.20456892	      0.00000000	     -0.00000000	      0.00000000	      0.00000000	      0.00000000	      0.00000000	      0.00000000	      0.00000000	      0.00000000
      0.03000000	      0.00000000	     -0.00000000	      0.00000000	      0.00000000	      0.00000000	      0.00000000	      0.00000000	      0.00000000	      0.00000000	     -2.09789038	     82.05458832	   -505.44607544	   -318.28241788	  -1126.44862867	      0.00000000	      0.00000000	      0.00000000	   6922.91683812	    -29.17442361	    -48.16945775	   -370.28063965	   -249.13693751	   -634.41118698	      0.00000000	      0.00000000	     -0.00000000	 -12378.21728837	      0.00000000	     -0.00000000	      0.00000000	      0.00000000	      0.00000000	      0.00000000	      0.00000000	      0.00000000	      0.00000000
      0.04000000	      0.00000000	     -0.00000000	      0.00000000	      0.00000000	      0.00000000	      0.00000000	      0.00000000	      0.00000000	      0.00000000	     -1.41573930	     81.25206757	   -503.37350464	   -320.57469213	  -1125.16420061	      0.00000000	      0.00000000	      0.00000000	   7204.43060410	    -29.93806664	    -45.38585020	   -360.11166382	   -247.86733651	   -632.57147833	      0.00000000	      0.00000000	     -0.00000000	 -12073.16359773	      0.00000000	     -0.00000000	      0.00000000	      0.00000000	      0.00000000	      0.00000000	      0.00000000	      0.00000000	      0.00000000
      0.05000000	      0.00000000	     -0.00000000	      0.00000000	      0.00000000	      0.00000000	      0.00000000	      0.00000000	      0.00000000	      0.00000000	      0.36393541	     80.06254578	   -505.58627319	   -323.02895983	  -1125.07779815	      0.00000000	      0.00000000	      0.00000000	   7529.15157989	    -30.61687076	    -42.24095649	   -348.01251221	   -246.08434488	   -632.08459254	      0.00000000	      0.00000000	     -0.00000000	 -11759.95439295	      0.00000000	     -0.00000000	      0.00000000	      0.00000000	      0.00000000	      0.00000000	      0.00000000	      0.00000000	      0.00000000
      0.06000000	      0.00000000	     -0.00000000	      0.00000000	      0.00000000	      0.00000000	      0.00000000	      0.00000000	      0.00000000	      0.00000000	      2.75366354	     78.94583893	   -508.22595215	   -326.15904791	  -1124.53942643	      0.00000000	      0.00000000	      0.00000000	   7668.68268402	    -31.50410986	    -38.16045486	   -336.32574463	   -245.08012668	   -632.51998416	      0.00000000	      0.00000000	     -0.00000000	 -11720.89403668	      0.00000000	     -0.00000000	      0.00000000	      0.00000000	      0.00000000	      0.00000000	      0.00000000	      0.00000000	      0.00000000
      0.07000000	      0.00000000	     -0.00000000	      0.00000000	      0.00000000	      0.00000000	      0.00000000	      0.00000000	      0.00000000	      0.00000000	      5.14489460	     77.86407471	   -508.57910156	   -329.86215617	  -1123.80476204	      0.00000000	      0.00000000	      0.00000000	   7798.26293434	    -32.68670968	    -35.86501789	   -325.40930176	   -244.31707761	   -632.72476294	      0.00000000	      0.00000000	     -0.00000000	 -11368.10737102	      0.00000000	     -0.00000000	      0.00000000	      0.00000000	      0.00000000	      0.00000000	      0.00000000	      0.00000000	      0.00000000
      0.08000000	      0.00000000	     -0.00000000	      0.00000000	      0.00000000	      0.00000000	      0.00000000	      0.00000000	      0.00000000	      0.00000000	      6.17216158	     77.01319885	   -507.56747437	   -333.26855632	  -1123.41455652	      0.00000000	      0.00000000	      0.00000000	   7718.71881226	    -33.35525812	    -34.22832197	   -317.58615112	   -244.25085298	   -632.97407677	      0.00000000	      0.00000000	     -0.00000000	 -11425.36948310	      0.00000000	     -0.00000000	      0.00000000	      0.00000000	      0.00000000	      0.00000000	      0.00000000	      0.00000000	      0.00000000
      0.09000000	      0.00000000	     -0.00000000	      0.00000000	      0.00000000	      0.00000000	      0.00000000	      0.00000000	      0.00000000	      0.00000000	      6.84480906	     74.80478668	   -504.34094238	   -335.97634115	  -1122.52021330	      0.00000000	      0.00000000	      0.00000000	   7897.63209067	    -34.77855212	    -33.43383485	   -312.60147095	   -242.91485196	   -633.09051671	      0.00000000	      0.00000000	     -0.00000000	 -11191.02611971	      0.00000000	     -0.00000000	      0.00000000	      0.00000000	      0.00000000	      0.00000000	      0.00000000	      0.00000000	      0.00000000
      0.10000000	      0.00000000	     -0.00000000	      0.00000000	      0.00000000	      0.00000000	      0.00000000	      0.00000000	      0.00000000	      0.00000000	      7.51830673	     71.49185181	   -496.31530762	   -339.20338530	  -1120.98678789	      0.00000000	      0.00000000	      0.00000000	   8018.55763971	    -36.39587297	    -31.53083865	   -308.09606934	   -243.18897712	   -634.46192397	      0.00000000	     -0.00000000	     -0.00000000	 -11145.04805252	      0.00000000	     -0.00000000	      0.00000000	      0.00000000	      0.00000000	      0.00000000	      0.00000000	      0.00000000	      0.00000000
      0.11000000	      0.00000000	     -0.00000000	      0.00000000	      0.00000000	      0.00000000	      0.00000000	      0.00000000	      0.00000000	      0.00000000	      8.25714970	     66.93485260	   -483.35552979	   -342.67334335	  -1119.78434134	      0.00000000	      0.00000000	      0.00000000	   7863.02528625	    -36.47249479	    -29.46252885	   -306.80700684	   -243.85536523	   -633.54048036	      0.00000000	      0.00000000	     -0.00000000	 -11373.73794193	      0.00000000	     -0.00000000	      0.00000000	      0.00000000	      0.00000000	      0.00000000	      0.00000000	      0.00000000	      0.00000000
      0.12000000	      0.00000000	     -0.00000000	      0.00000000	      0.00000000	      0.00000000	      0.00000000	      0.00000000	      0.00000000	      0.00000000	      9.73777962	     61.93308258	   -463.81970215	   -347.36439388	  -1116.79328779	      0.00000000	      0.00000000	      0.00000000	   8023.00229145	    -36.14410631	    -26.42059964	   -304.96212769	   -245.31258387	   -634.68350330	      0.00000000	      0.00000000	     -0.00000000	 -11236.12815193	      0.00000000	     -0.00000000	      0.00000000	      0.00000000	      0.00000000	      0.00000000	      0.00000000	      0.00000000	      0.00000000
      0.13000000	      0.00000000	     -0.00000000	      0.00000000	      0.00000000	      0.00000000	      0.00000000	      0.00000000	      0.00000000	      0.00000000	     11.15131378	     56.57194138	   -451.00857544	   -352.27923824	  -1115.71255309	      0.00000000	      0.00000000	      0.00000000	   7821.71987514	    -34.66077264	    -25.42412264	   -303.21209717	   -247.35989335	   -636.31054400	      0.00000000	      0.00000000	     -0.00000000	 -10838.44547323	      0.00000000	     -0.00000000	      0.00000000	      0.00000000	      0.00000000	      0.00000000	      0.00000000	      0.00000000	      0.00000000
      0.14000000	      0.00000000	     -0.00000000	      0.00000000	      0.00000000	      0.00000000	      0.00000000	      0.00000000	      0.00000000	      0.00000000	     12.09453869	     53.36357880	   -440.41540527	   -356.58111197	  -1114.48847233	      0.00000000	      0.00000000	      0.00000000	   8050.53397615	    -31.11222692	    -26.78661837	   -302.01663208	   -250.54744164	   -634.63923033	      0.00000000	      0.00000000	     -0.00000000	 -10419.15493410	      0.00000000	     -0.00000000	      0.00000000	      0.00000000	      0.00000000	      0.00000000	      0.00000000	      0.00000000	      0.00000000
